<svg width="14" height="16" viewBox="0 0 14 16" fill="none" xmlns="http://www.w3.org/2000/svg">
<path d="M13.3688 4.42491C13.3671 4.42491 13.3655 4.42425 13.3643 4.42308C13.3632 4.42191 13.3625 4.42032 13.3625 4.41866C13.2722 4.26486 13.1428 4.13765 12.9875 4.04991L7.4875 0.956162C7.33849 0.872963 7.17067 0.829285 7 0.829285C6.82934 0.829285 6.66152 0.872963 6.5125 0.956162L1.0125 4.04991C0.857206 4.13765 0.727841 4.26486 0.637504 4.41866C0.637504 4.42032 0.636846 4.42191 0.635674 4.42308C0.634502 4.42425 0.632912 4.42491 0.631254 4.42491V4.43741C0.544847 4.58303 0.499491 4.74934 0.500004 4.91866V11.0812C0.50032 11.2593 0.547933 11.4342 0.637976 11.5879C0.72802 11.7417 0.857265 11.8687 1.0125 11.9562L6.5125 15.0499C6.65097 15.1254 6.80492 15.1682 6.9625 15.1749H7.05C7.20362 15.1681 7.35348 15.1253 7.4875 15.0499L12.9875 11.9562C13.1427 11.8687 13.272 11.7417 13.362 11.5879C13.4521 11.4342 13.4997 11.2593 13.5 11.0812V4.91866C13.5009 4.74534 13.4556 4.5749 13.3688 4.42491ZM7 1.82491L11.9813 4.62491L10.0688 5.71241L5.025 2.93116L7 1.82491ZM7.05625 7.42491L2.025 4.62491L4 3.51241L9.05 6.29366L7.05625 7.42491ZM7.50625 13.8937L7.55625 8.29366L9.5625 7.14991V9.53116C9.5625 9.66377 9.61518 9.79095 9.70895 9.88472C9.80272 9.97848 9.9299 10.0312 10.0625 10.0312C10.1951 10.0312 10.3223 9.97848 10.4161 9.88472C10.5098 9.79095 10.5625 9.66377 10.5625 9.53116V6.58116L12.5 5.48116V11.0812L7.50625 13.8937Z" fill="#FAFAFA"/>
</svg>
